<mxfile host="app.diagrams.net" modified="2022-05-03T00:22:07.979Z" agent="5.0 (Windows NT 10.0; WOW64) AppleWebKit/537.36 (KHTML, like Gecko) Chrome/100.0.4896.127 Safari/537.36" etag="-6z52gUzFoJZQalqVML2" version="17.4.6" type="github">
  <diagram id="qmI6LUlu0K6wFWTq1jUT" name="Page-1">
    <mxGraphModel dx="1422" dy="715" grid="1" gridSize="10" guides="1" tooltips="1" connect="1" arrows="1" fold="1" page="1" pageScale="1" pageWidth="1169" pageHeight="827" math="0" shadow="0">
      <root>
        <mxCell id="0" />
        <mxCell id="1" parent="0" />
        <mxCell id="wXUvmhFlW6K3RGWHzzFr-9" value="" style="rounded=0;whiteSpace=wrap;html=1;" vertex="1" parent="1">
          <mxGeometry x="400.5" y="60" width="610" height="240" as="geometry" />
        </mxCell>
        <mxCell id="PTJRQVvbIerqqaXg6TyO-2" value="" style="outlineConnect=0;dashed=0;verticalLabelPosition=bottom;verticalAlign=top;align=center;html=1;shape=mxgraph.aws3.cognito;fillColor=#AD688B;gradientColor=none;" parent="1" vertex="1">
          <mxGeometry x="585" y="122.5" width="76.5" height="93" as="geometry" />
        </mxCell>
        <mxCell id="PTJRQVvbIerqqaXg6TyO-3" value="" style="shape=image;verticalLabelPosition=bottom;labelBackgroundColor=default;verticalAlign=top;aspect=fixed;imageAspect=0;image=data:image/png,iVBORw0KGgoAAAANSUhEUgAAARYAAABXCAYAAADBPmoyAAAgAElEQVR4nO2d2XMcx53nv3X1hT7RaKABNEAcJEASvCSLMCV6JJmSZdGyZHFnwxH22H7YnZh5mr9gHjb8um/7shG7sRuxsw/2ho+RvLJW1lA0JdGmaFAiSIIAD4DEfTbQFxp91LkPYBaquqv6ABqgZ5yfiAoS1VWVWVWZ3/zlL3+ZxaytrWmgUCiUBsI+6wxQKJR/e1BhoVAoDYcKC4VCaThUWCgUSsOhwkKhUBoOFRYKhdJwqLBQKJSGQ4WFQqE0HCosFAql4VBhoVAoDYcKC4VCaThUWCgUSsOhwkKhUBoOFRYKhdJw9l1YWJaFoij7nYxluhQK5dnA7+fFWZbF1atXMTMzc6AVXVVVnD17FidOnICqqgeWLoVC2WbfhIVlWSwtLeG9995DNpvdr2RsmZqawk9/+lPwPE/FhUI5YPZNWBiGwa9+9Susrq6C5/fVMLLkyZMn+Pzzz/Haa68deNoUyl86+1LjWZbF3bt38ac//Qk8zz8zf8evf/1rnDx5EpFIhFotFMoBsi81XlEU/Pa3v4Wqqs9MVFiWxdraGq5cuQJNo8v6UigHScNrPcuy+OKLLzA2NvZMukBGHA4Hrly5gkePHtFRIgrlAGlobSNWwgcffPBnYSWwLItsNosPPvjgmQx5Uyh/qTRUWBiGwdWrVzE3N1fRWmEU2XKrKQ1FBiMWTFsleJ7H2NgY7t27R60WCuWAaFhfhWVZzMzM4MqVKxUrMKPIyPlbIHqCpv2OXAqezDo0rrIgFQ6fgeb2ms+dGQO3mbY9V5Zl/OxnP8ORI0fg8XioI5dC2WcaJiwMw+C9995DJpOBIAi2x8mCC+O9z0MRPIZc8OACIZz64p/h2EpbX18sINV7CvMvXETU3wRVcOi/uTsOwX/557ZpsiyLJ0+e4Pr16/jWt75V/81RKJS6aEjfgGVZTExM4ObNmxVFBQDSnYOI+1uRcHv1LdXahXjPENaHvmHbtdE4Hg+efwPLze0oNgUh+5v1bevUeeT7TlfsTjkcDnz44YdYW1ujXSIKZZ/Zcw1jWRb5fB6//OUvIYoiZFm23BhVhtgUxFTbYfMFeB5aOAqwLKaPvICivwWMWDSfKxaRPPw1JNp6IGvAvKiafDMq70D+uW8ADGubvqqqmJ+fx29+8xtomvavVlxYltXzTv5v3KyOrXRMrenVc75duo26TiNpVF73mt5BXucg7nXPXSGGYTA5OQlVVXHs2DHb42RJxAeBAWw43OYfWmPQXNv7Mk0BTLx0Cf/+yWdQGE4/pKBquPH8G8DTm06qQJckgxW2s88oMoqHjiI//DpOrk1CtvG1KIqCpaUlLC8vo7m5uerIldvthqqqUFUVkiSZftM0DS6Xq+L5wPa8JVEULX9jGAZOp7PqcaXnkPRL8wQAgiDA4/FAlmVsbm5aXsPn81VNh5BOl3dNBUGwvHeWZaGqKtLpNAqFAgqFAorFoj4ix3EcnE4nXC4X/H4/3O7t927l82JZFhsbG5Z5CofDe/aTkQqUTqeRyWSwtbUFSZJQKGxbzDzPw+VywePxwOv1IhwO2+a1HuLxuOkaqqrC4XAgFArVdZ10Oo1cLle2PxgM6mXKCmIIpFKpst9kWYbH42nI892zsOTzeQiCgLfffrvicSMLcSwvmYd82zwerAZbTPtOnDiNN46aC35RY/Ax2gHD6fOiikOGXpcqOJF94TW8qA3Ay5WrLincsiwjm83WNPzc0tICt9uNVCqlFzhyLUVREIvFqip8PB5HsVgsywe5vtPpBMuyWF9ftxWC0nSNf8uyufvn8/lw+PBh3UKTZdk0QifLMnp6ehAMBqsWnsXFRayuruqCQc6PRCLo7+8vOz+dTmNpaQnpdBqyLEMURUiSpB/HsiwYhoHD4YDL5UIgEEBPT49lRWAYBhMTE2XPDAC++c1vVsx3LaTTaUxPTyMejyOfz6NY3LaSiVizLAtBEMBxHFwuF1paWjAwMAC/37+r+WcsyyIej+Pzzz/XGytgu4EQBAHf+9736rI47t+/j/v375f9dvHiRUSjUVuxzufzuHbtGhYXF02/SZIERVHw6quvoqWlpezcetmzsGxubiIYDOqKbsd/mt4CYK44hZaoboUQ/r4F6HH1lJ3/N0kN/3mD0f+2slqkpgBW3C686imWnW+sgJqmmSq7FYqioFgswuPxoFgsYmtrCwD0QqFpWtXI4o2NDaRSKZNlpKoqZFmGz+eDx7PtwGYYBtlsFpubm2XD9CTfxGoqLTDkeqXwPA+Hw4GNjQ04HA7T8aurqwgEAhXvv1AoYG5uDoVCAQzD6PerKAp6e3v1e2LZ7e7n48ePdXG0yg+w/UxVVUWhUEAmk0E8Hkcmk0EkEkF3d3dZhV1fX9fzTJ7FXoIuiUCOj49jYWEBGxsbFa1EURR1UYvH49jY2EA0GsXx48d1a7ZWGIbB7du3MTMzAwCmMiGKIubm5tDX11fTNRmGwfr6OiYnJ03vFgCKxaJu1Rohy5f8/ve/x927d03lX5IkbG5uYnh4GK2trQ0ZNd2TsJCbEATB0iwnfLqQxI24WVRYfwhpb7Np39tNGgZd1jf1lk/BRxkOY9LOQ1sQVXSX+IqvFHn08DK6+Z38ECEwpV+ldShtJcnDNlo+lUgmk0gkEmXpqqoKn8+H9vZ28Dxvmy+joJB/7VohKxiGQWdnZ1l3gmVZJBIJrK+v286hYlkW09PTpkLKMAxkWUY4HEYkEtH9VJlMBtPT01hZWUGxWKz6XI2/E5FLpVLY3NzE0aNH4XQ6y4TEeM5ufQAkr48ePcLk5CSy2Sw4jqt6HjlG0zQsLS0hHo8jmUxieHgYfr+/pkrIsixyuRwmJyf1fcbKz7IsxsbGcOjQIUtRsINhGF1oJUmyHTghonLlyhV8+eWXEEXRJNCFQgFnzpzBG2+8UZOLoBZ27alRVRXZbBY8z1dsRRK5PP7boxXzTo6HFuk0WSsdLPC3zfYvqZkHfhLS4DQ894QKxItmAVhQOfw+t5MfK1FpBHYFgGVZJJNJbGxsWHa3mpqa0N7eDrfbbZkvRVFMTnAiKJW6blbPX9M0uN1udHR0WIrk0tKS5TWJb2N1dbXsHIZh0N/fD4ZhwLIsCoUC7t+/j/n5eUiStGvHcLFYxOzsLO7evWvqcjYq3ojk9c6dO5iYmEA+n7cUlVKHfykcxyGfz2NychLXr19HIpGo6Z4ZhsGTJ0+Qz+ctf+d5Ho8fP65rxJKUa0mSIEmSqRtXiqZpGBkZwbVr13RLhdxjPp9HLBbDm2++qTcYjWDXwkJM5GpcnkvgXsb8QFlfEJrbY9r3g6CGPmflm/orr4pX3OZj1iQFqmSuIKMyjwlxW70b9aBKC7lVwSSt4sbGhmXBdDgcaGtrsxQV0k0ghYQICql8DMOA4zjTJggCBEGA0+nUBb40X+3t7WUtGWlB4/F4WUFWFAUzMzN6/ozO61gshnA4DE3ToCgKHj16hHg8XvG5kS6Z0+nUzfZS64u0qAsLC1W7qLtB0zSMjo5ienra1tJ0u90YGBjA0NCQvlVyck9PT+Orr75CoVCoKgaFQgG3bt2y/Z1hGBSLRYyNjdVlsQAwiaDVvbEsi9HRUXz66aeQJMl0fUmSEI1G8Z3vfAft7e0NbYB31RUi/fpq/d2FTA7/ZzZp3sk9HV42MCRoeNtf3Znq0hT8MMjiszyD4tNnIGnAoqigS9ipUFmGw28KThxxqWAbNEeI+BjsIK3i8vKypSXAMAwikQg8Ho/lC7Tr6hAHstU5xkJC0nQ4HKbrCIKAjo4OzM7OlonO/Pw8gsEgXC6XLmIrKytIp9NgGMZk7fE8j56eHr0LNDMzU+YANN5LW1sbfD4fmpqawHGc7qfZ3NxEPp/HwsKCnibJ78DAgO53ahQsy2JhYQGTk5O2FW9gYABtbW2IRCKmMt3Z2an7Mqwc69PT0wgGgxgeHq6Y/vz8PNbW1irmUxAETE5O4ty5czV1sUrFTNO0MlFiWRa3b9/GJ598gnQ6bXr/mqYhFArh4sWLOHLkSMOt+rqFhWVZveBV4788WsNUvsQ5Fukos1b+Y0hFuEpOyIjICTeHHwUY/M/UTvobKuAuKmhx7jy4KYXHaEHAWUFumElt9/CJpZJMJiGKYlkFZhgGLS0tdQ3zEgKBAPx+/67zqWkaotEo4vG4PjxJ8ieKIpaWltDb26t3Sebm5qBpmr4B2y3hkSNH4PV6oaoqisUipqamLAWU53nEYjF0dnbC7XbD4XCYygpxiAYCAd2BSvxBAwMDln6n3ULE/vbt25ai4na7ceLECfT39+tD30YOHTqEjo4OBINB3Lx5s2yIVlEU3LlzB319fbZDtIqi4OHDh1XzyjAMtra28PDhw4pCVStk5Ojy5ctIJBJlouJyufDWW29hcHBwz2lZpl/vCcViEYVCoaKzFgDurWfwu2VzDATrCwLNraZ9r7g1vOyzL0hEUEgh5lUFP/CJiJbkfFUqL+S/ywvY0CpHAu8VUnjj8Ti2trYsu0gtLS1obm62OLs2jBW9lq0UnufR1dUFhmFMz5NlWayuriKTyYBhGCwsLCCTyZSJis/nQ1dXl26tzM7OWsZQAEBvby8GBwcRDAb1ro8xb4IgwO12o7e3F8eOHYPf70ckEsGxY8caKioA9HuyshZYlsWJEyf0ER67ZykIAvr7+zE8PGxpoedyOTx69Mgy38RfNTc3V1N+SbfF6GfaLVNTU/j444+xvr5uKSqvvvoqTp8+ved07KhbWMhNlzqLjA9dURT81werQEmLpoXbyoeXm80OWSOlokL2hRgF3w+YX6SkAeuiOb3ZEkduPdRi5XAch2KxiLW1NUvfgKIoCIfDaG5urrvvTGhElLCmaWhubtZDAozPVVVVLC4uIh6PY35+vkycJElCf38/BEHQfSsLCwtleSLdn76+vqoCQX6LRCIYGhrCsWPH4PV6bZ3ZxjJQ7/IXCwsLZftkWUZ3dzcGBwfBsmzVvGqahv7+fsvWXRAEzM7O2nZ/x8fHy0RYVVV0dnaiubnZVM4YhsHa2hrm5uZ2/c45jsPS0hI+/vhjLC0tmeoluc/h4WGcO3duXyfj1px7Yiobx/2N4mJ0EH6xnMa19ZLhZW8QmsfcFbjk03DSbW0+lgoKsOOHUFUV73hFPM+bf18Ty1/urzMMJmVHXS9KUZSaWs6trS2sra2VLRZO8u73+9HS0rJrUVEURQ9cMt673VYJlmXR1dVV1gBomoZEIoGHDx+WtZQkGK61tVW/RqFQsB3dqLcro2ka2trabIc4jeWgXmEheV1ZWSn7jWEYDA0N6WJZa15PnDhh2WWKx+Nl8TCke/zgwQPLa50/fx4DAwOmsALyDsfGxna9ftDi4iI+/PDDsqVLjKLy0ksv1XXvu6Hm5lxRFGSz2bK+KvmbCMtqroj/PlVienI8tFbz8PJRQcPfhexFxaqiGB9EABJ+4BFxb9MH8eluUQM2RAVhx7bptyEqmJcZ/K9NB/7RX4DHIiLXKv1alXx9fR2FQqGsECiKgqamJkSj0aotYiVUVcX6+rptRS5NMxwO2zr+NE2D1+tFc3OzqWsgSRI0TUMulyvrxrEsiyNHjuj3QAL5rPB6vQgGg7uqEHbPR1GUmmJNrGAYBolEAplMpqwLQyJp63kvmqYhEAggEAiUvQ9itfb09OjPnmEYzMzMIJvNlsXukIBAp9OJL7/8Evl8Xj+G4zhMTk5icXER3d3dNZdF0niNjIxgdnbWMpr59OnTuHDhAnw+374vxFazsBQKBduhOjI8CgAfPlnDaMps+rFeP1RPk2nfX/s1xByaXhBLA9Cq3bimaTjrVvCaouGjrR2LYFVUEGIBluew+tSC+SzP4HsCi6+5dwq9VYGtVVRIHkk0rlVlIqMtu215yHmpVAqZTKbq8aqqQhCEihG1qqqiq6sL6XQa+XxeH+kiz1r3Y/E8ZFlGLBZDKBQyvQs730q9DuaDIJ/PQ1GUMmEJBAK7siJ5nofX6y3b73A4dCc4QZZl3LlzpywdTdN030Y4HMbAwABu3LiBpqbt+sFxHHK5HO7evYtDhw7Vncfl5WXbuUJnz55FIBA4kNUUa+ofkLgHK4iFUSgUsJzN49dzJZGe3iBaW6NoZaFvA4KGVz2Sfm6xWNQ3OwekFR6ew0+8RbBbWX2Ts1ms5EVsiIrJkvl5zqMPoZKAs1LfTSVRKTXL7bprhEpCXAulE9Vq6QZVKzCapukBeiTvxuFkcg0yGa2np6esC2lsRIwcxPrGjagQsixbdmdqxWo4XBAEUzeSDDEvLS2ZhEVVVQSDQQwMDOhD7adOnSoLG+B5HlNTU9jc3Kzb11JJMK3mFu0Xu/IQ1Vq5wHFApAOtwQCiTk7f2h0cXOxOH98YEFbv/AstlwXiS6YtvpnVrRU7SismyQMJOCq9JxLhWGvhTqVS+lBqveynU03TNLS3t8Pv95vuxWjBSZKErq4uW4fqs6IRwlKxvO6BUnEYHx8vO0aW5bLAu2g0ip6enrK6lM1mMTo6umv/nBXXr1+3zNd+UJOwqKoKj8dTVVBa3Q68G9uZ/s00BaA2eZFSt7smZEuzPD7LbftkSlt1o6OyGjlZxf94vA41m9rZ8ptgWE63VgDAwQA/8OQsC5QkSbpTmjij7QSkHuFTFMXSqVfrubuhVn+Ew+FAb2+vbaH1+Xzo7Oy0/J3Mxi5lL9bZfmGVf47j9vRlTivLXZIkBINBPc14PI7p6WnTEhdEoIPBIBYWFrC6uorV1VXE43GTBWlkZGSk5gj3UkotfzLX65NPPsH6+npDBcuKmu1Xsv5GpUKvKAre6mvFtUQeo5tFOFraUASw8tTvwfA7Bf9yjscZB4+QUj5mb0yj0iS7W+ub+P1aif8hHIXaZO4Hv+LWcEwQAZjNUmO3SJbligvdkAjR0lB0IrpWsQeSJGFlZQWxWKzmF1kqXC0tLTV3M/x+f00WhqqqaGlpQTAYtPTfxGIxS/8QmX9khdX6Hs8STdPg8/nKZv/yPI9MJgNRFOF0OuuyyIrFIhKJRNl+SZLQ3t4OYCcWZXNzEw6HwzQrHIAe2m8sZ3ZCl0gkMD8/jyNHjtTc2JCQgPb2diQSie2F0p6WPZ7nsbCwgKtXr+LSpUv7OjJUs7BwHAe/349kMlnxuDa3A/9hIIp/mClAa/IB2s5oTYtBWNIsj98WnPgxZ9962AkMwzBIFBX8vGy6AAdHSxRGG+Ewr+Ennjxc7E7FJt0eq+Hs0rSMWImL0+lENBpFKpWyrFzJZBJut7vmNS5K8xSJRGr24hvD42s51ufzWQqLlYMS2LFcS/cB28KysrKC1tbWmgsr8XnVMnJWrxWnqipCoRACgUDZPRaLRUxPT+P48eM1X5dhGKysrGB9fb2sfPh8Pt15nc1m8fDhQ3AcZ/JHkXSmpqYsr281M5nnedy8eVNfUqIWZFlGNBrFa6+9hvHxcdy8eRMul0sXHFmWMTIygvb2drzyyiv75sit2ceiqiq8Xq+eSTsURcHZVh9ejkVN3ZE1FUiW+D1uiALmNPvVrsj1Sh2rDMPgX+Y3MJLcMh/c3Lbt1zHw1+4i+tiCfg+ku2P3QCt1d0oLlCAIiEajCAaDiEajtl8AiMfj2NzcrGq1lJ5L/uY4rupygo1aUrAaLpdLD+0vdYJPTEyUTXSzg5jm9+/fRzKZrHrObioAz/OIRqNl53Ich7GxsZp9YAzDIJfLYWxsrKzLJ0kSOjo69JGY8fFxfTSKlDNj+mTiaOlmhSAIePDgARYWFmq2eMPhMN544w2cOnUKr7zyClpbW3W/IYk5k2UZly9fxuzs7L51ieoujcFgsGrrIqgK/r5ZhWDIs6htd4lK+Uj2olhDI2sUl/W8iH+eN1srjMcPtLSbxOwEp+KvnHmTU7baVASgNnEh8QihUAiqquozl61aFkmSsLS0VNEPQWYQW+V1P525Rmpdn6Srq6uswnAch1QqhYcPHyKXy4FhGMtCS/bncjlMTEzg7t27GBsbQyqVsi3ku21VNU1DX19fmejyPI9UKoXbt28jm81WrFwMw0CSJNy6dQuPHz82da0kSUI+n9cDA0VRxMjISEMdxJIk4d69ezULwPDwMIaGhnQnPfkqhbHscRyHTCaDjz76qOr975a6hcXpdNY0me6oQ8YbTWYBKmpAqmROz11ZwG2xtvk8xJT739MbmDauw8JxYFo7TdaKwAA/9OTg1+SqVooVpIKXQgqpoihl8398Ph+i0WjZOcB2zMvS0pKtKJPRsdIFwIGdyljrtltqMbdVVUUsFrONh5iamsLExASWlpb0QDKSL03TkM1mMTMzgzt37mB8fByKomBubg5jY2O2Vt1uK6lxmkHpNcgaKDdu3MDS0pJuaRk3TdMQj8dx69Yt3Lt3z7T+iSiKyOfz6OzsRH9/PwBgZmbGchkJnufR1NQEt9tddSuFYRg8ePCgovAaIUJKGsfTp0/jxRdfLDuO4zhMTEzgD3/4w740XHUHH5C+qyzLVdfO+LuAhIc5DlPqToVfLioIMGZH7hXZi+NsDj618vVYlsXYxhZ+Nmt2oDEeH1SvWezO8gqe43IQxdosFCvsrJtK3Y5IJIJsNotUKlV23Orqqr5YcSWMVlE8Hq9rUpqiKGhpaan6GRbj8fVGtzqdThw+fBijo6OWz252dhbxeBytra0IBAL6/UiShEQigeXlZWxubprSnZ2dBQCcP3++YgVSlO3ZwrWIjc/nQywWw5kzZ7C2tlbma5FlGRMTE0gmk/o6wMQiURQF6XRaj0cBtis5GeUjI0Evv/yyHlB49+7dMqe3LMs4fvw4Ojo6qo4QchyHR48eYXZ21iTyqVQKo6OjuHDhQt0iy3Ec3nzzTSwvL+PevXum4DmO43Dt2jV0dnbi5MmTz349Fo7j4PV6qwpLjJPxN34GP03tFKCiBiREBWGDsCxyTtyQNXyLrXw9UQP+aa5k1XiOAxOOwvhIwizwQ2cGglJdVIDqXY3Sl1lJWBiGQUdHh75As/FYTdOwvLwMt9uNpqamqi+SZVl9IlmtL53MRq5VWGRZrltYyCS6bDZruXwCx3HY3NwsEw8AeuWySpOsD2y1zozx75GRkZqGtzs7O9HR0YFQKIQzZ85gZGQEyWTS9GwcDgeWl5exsrKCpqYmk7CQmd4Oh0O3UohfyeVy4dy5c+jq6gKw7UczrnlD8u10OvHSSy/VtJYsx3EIhUL6urjGe7xx4wbOnz9f8b1aBZeqqgqXy4WLFy9ieXm5bF2Wra0tvP/+++ju7kYgEHi2K8ipqgq3213TcN1rAQ3HOPMDXVMBraTAfJbnsFjBkcuyLD5bTuGPGyWjSKEIVK85nPybXB5HGetI4d1Qz/wh8iLJPCFynqqq+pobi4uLdb1AY3xNtc0Yol/P/RFnY63xKBzHYXBwED09PeB5viyKufTaZCOr35USDofx3HPPWa5oV/o3qeCVNhKfBGw/+/7+fjz33HMIBAL6syKQYeFsNotEIoFEIoF0Om0rKl6vF1//+tf1qFlN03D79m09PXJ/kiTh6NGjiEQiAKp/z4cs/UlGEEkeybyn6elpy0aNjPjYlVNVVdHT04OLFy9adnfn5uZw+fLlmh3vtbDroQQy/FytEDdpMv42IJocuUUNSJasVZtkBfxOth7mBIBNBfinJ+bpAozbB0Q6Tfv6WBVv8dafad0LVjEslY4NhUJoa2vTu4zGir++vl62pizBznqoZVSo3gmP5H7IpzrItIpaz+U4DsePH8fhw4d1J7bVMH6lazidTvT29uL06dN66293bLUARaOAlQoky7I4fvw4zp07h+7ubt0pSzaHw2G5EVEh8SCxWAznz5/HuXPnwHEcNE1DOp3Wh5iN6TEMgxdeeKFmi5A0SidPnizLvyAIuH79uv5sjSNyRGwrDUyoqorh4WGcPXvW9DyJ9XXlyhV89dVXDROWXU/wIA/B5XKhWCxWfHgX/MC5vIZrecNkQRUIKSoYw4zjW7KAC5wT/bz5WzQAcHU+hccFc4FlWqLQStL9d44tdBmWU7ASgNICaldYjfdUKiq1FJZoNIqNjQ19pXxS6cniyk1NTWWOcI7jTHN46qWeVqc0zqJeJx6JQRkcHEQ4HNbnt5CPf1UaWfN4PPq8pYGBAdvPadjNg7ISL2NltLO8BgcHEYlEMD4+jsXFRf2bUcblC4zOTzLiFwqFEI1Gcfr0acRiMf034hcxzlAm99jd3a0fWyuapuHkyZMYGRkpW6yb5Lm7u1ufY2ekWsgBx3G4ePEi1tbWcO/ePdPxoiji/fffRywWQywW23OXaM8zx4LBIB4+fKivQmbHN7eAa+4BfemEogasF2W0OHmTuPy/LQHfSz+Goij6AtKiquGX82Y1Ztzesi5QYCuNQ8kHWDA831IBICMFZDYpYD/qQALT3G43fD6ffi1S+au9SIZhTK2wUSxlWUYul9OtPrLcAbl2PYWRrD8syzJcLldZtKkVJDLV6Eg2+gXqLVitra3w+XzY2NhAMplEJpNBLpczja6RZSpJQFkkEkEwGLT9AFhnZ6etw7Nal61YLCIajepdFYKqqmhubsaLL76IlZUVrKysIJlM6v4dIixEoP1+P0KhECKRCLq6uiwFUBRFdHd36/FGwLbADw0NlaVfDZK/s2fPYmpqytR1yefz2NjYQHd3ty7IxjJIfJ926amqikAggG9/+9uQJMnS/7W6uqoL115g1tbW9iRNHMdhdHQUv/jFLypWBkZT8X+Pfgurh8+Y9h/igJDn6RKGHA/fl5/g2IM/QtF2FFhUNXzY9hw2yEJRLAe26zBUn2GJAFXF10Y+wNdW7kHmrCsWCfL78Y9/XFMkbCAQ0FsmqwJeyydWycxwO9G1+sRqveaoKIpwOBz6+STf1ShduIvQ1NS064A7cl4ul8PW1pbpvlwuF1iWRSAQ0CtMJauGfFFxN6iqiqamJtugRWNe80Mui/wAAAPRSURBVPk8MpmM6ThZluFwOGr6FCz5pKzxmqqqwu/3V/zcqR0sy+p5Kr0nj8eDQCCAXC6HdDpd9p7C4XBN786uK06uv9ch6D1bLJqmYXBwEF6vF6Ojo7axEAILHEv/Fvn2XmSadgRhRQWCT7tEQm4T3j98gMXCFiTVfO6g7MT1I18H8HR42WdedyS8OoO221cxXeGBSJKEt99+G319fTVVXqOFUYuI2F2DVCi765emUW+lJgW/UgWwwul0WsZO7KVQkXPJd4/tjqmWBmld90K1dMhvTqcTbW1tVY+z+40sAFXPeZUggyN287JImbJ6vrWmSeY22V1/r+xZWMhDuHTpEu7fv6+bkqVoANxbCfRP/BGjZ7+j7y9qQEqUEXI74Bv9FGw2Dc3hAs+azw2uPUZray/WQu1gwm2m4WWmkMfg6CeAptoKm6puL3L03e9+V5+jcpDUk95B5m0/09rrtf+1PIf9yGct1/xzy7ORhqzOo6oqjh49ivPnz+PKlSsVW/fInU/R1jkASdgxEUUGEDgFjptXoDlszlVVHJ+5DdnjBwqZ7e0pnpVZBOcnoHH2tyOKIt566y20tLTs28QrCoWyTcOW/WIYBu+++y5u3bqFra0tW3OelwoY+uJ9FFzmoWVXIQsum7IVFo3j4d5K4OjMbWBpwvSbL7kIqCpgs6atqqo4fPgwvvGNb/xZLVxEofxbpWHCoqoq2tvb8frrr+O9996zFRaN4+Fam4OVfNhaKwaCK+XTzjWOt7VWyHDhj370I/2LfxQKZX9p6Fx7TdNw4cIF9Pb2VvTmEyEo3WpKo87zRFHE6dOncfToUSoqFMoB0VBhUdXtlckuXbq070vf1ZqfcDiMd955Z9efkaBQKPXT8NWBVFXF888/j1OnTj3zdVBFUcTFixfR399PrRUK5QDZl2XHOI7DO++8A0EQnlmFJhG2L7/8MnXYUigHzL4Ii6qqGBoawvnz522/Q7OfkMCo73//+/rkOAqFcnDs21emNE3Du+++i/HxcaRSqZrmrzQKURTR19eHl156iYoKhfIM2DdhIV2RS5cuYWxs7EC+lEdQFAWvv/667eQ2CoWyv+x5EmI1WJbF1tZW2cpg+wnDMLue20OhUPbOvpsRZJap3Ryi/UqTQqE8Ow6kf0IqOq3wFMpfBgdjQlAolL8oqLBQKJSGQ4WFQqE0HCosFAql4VBhoVAoDYcKC4VCaThUWCgUSsOhwkKhUBoOFRYKhdJwqLBQKJSGQ4WFQqE0HCosFAql4VBhoVAoDYcKC4VCaThUWCgUSsOhwkKhUBrO/wf9qDsQWvgAQwAAAABJRU5ErkJggg==;" parent="1" vertex="1">
          <mxGeometry x="130" y="140" width="148" height="46.32" as="geometry" />
        </mxCell>
        <mxCell id="PTJRQVvbIerqqaXg6TyO-4" value="" style="whiteSpace=wrap;html=1;aspect=fixed;" parent="1" vertex="1">
          <mxGeometry x="104" y="290" width="200" height="200" as="geometry" />
        </mxCell>
        <mxCell id="PTJRQVvbIerqqaXg6TyO-5" value="Users" style="strokeColor=#dddddd;shadow=1;strokeWidth=1;rounded=1;absoluteArcSize=1;arcSize=2;labelPosition=center;verticalLabelPosition=middle;align=center;verticalAlign=bottom;spacingLeft=0;fontColor=#999999;fontSize=12;whiteSpace=wrap;spacingBottom=2;" parent="1" vertex="1">
          <mxGeometry x="120" y="300" width="70" height="85" as="geometry" />
        </mxCell>
        <mxCell id="PTJRQVvbIerqqaXg6TyO-6" value="" style="sketch=0;dashed=0;connectable=0;html=1;fillColor=#757575;strokeColor=none;shape=mxgraph.gcp2.users;part=1;" parent="PTJRQVvbIerqqaXg6TyO-5" vertex="1">
          <mxGeometry x="0.5" width="50" height="31.5" relative="1" as="geometry">
            <mxPoint x="-25" y="19.25" as="offset" />
          </mxGeometry>
        </mxCell>
        <mxCell id="PTJRQVvbIerqqaXg6TyO-7" value="" style="sketch=0;pointerEvents=1;shadow=0;dashed=0;html=1;strokeColor=none;fillColor=#505050;labelPosition=center;verticalLabelPosition=bottom;verticalAlign=top;outlineConnect=0;align=center;shape=mxgraph.office.users.approver;" parent="1" vertex="1">
          <mxGeometry x="360" y="340" width="59" height="55" as="geometry" />
        </mxCell>
        <mxCell id="wXUvmhFlW6K3RGWHzzFr-2" value="" style="sketch=0;outlineConnect=0;fontColor=#232F3E;gradientColor=none;fillColor=#2E27AD;strokeColor=none;dashed=0;verticalLabelPosition=bottom;verticalAlign=top;align=center;html=1;fontSize=12;fontStyle=0;aspect=fixed;pointerEvents=1;shape=mxgraph.aws4.rds_instance;" vertex="1" parent="1">
          <mxGeometry x="700" y="130" width="78" height="78" as="geometry" />
        </mxCell>
        <mxCell id="wXUvmhFlW6K3RGWHzzFr-5" value="" style="shape=image;html=1;verticalAlign=top;verticalLabelPosition=bottom;labelBackgroundColor=#ffffff;imageAspect=0;aspect=fixed;image=https://cdn2.iconfinder.com/data/icons/freebie-social-media-icons/64/openid.png" vertex="1" parent="1">
          <mxGeometry x="170" y="200" width="64" height="64" as="geometry" />
        </mxCell>
        <mxCell id="wXUvmhFlW6K3RGWHzzFr-7" value="" style="outlineConnect=0;dashed=0;verticalLabelPosition=bottom;verticalAlign=top;align=center;html=1;shape=mxgraph.aws3.virtual_private_cloud;fillColor=#F58534;gradientColor=none;" vertex="1" parent="1">
          <mxGeometry x="400.5" y="30" width="79.5" height="54" as="geometry" />
        </mxCell>
        <mxCell id="wXUvmhFlW6K3RGWHzzFr-10" value="" style="shape=image;verticalLabelPosition=bottom;labelBackgroundColor=default;verticalAlign=top;aspect=fixed;imageAspect=0;image=data:image/png,iVBORw0KGgoAAAANSUhEUgAAAQkAAAB5CAYAAAAqPdQRAAAgAElEQVR4nO2de1xU1dr4vzMwFwYYEAUEEVEQ7/fEvJaV6aks08zsZpdjHu3YydffyXjPOa/1ntMx8zU7XaTyWFGWqWmWZpqV9xuoeEVBQQTkMlycGXBmGGDm98di9jCCiMp46ezv5zMfmNlr77X2ZT37Wc961vMozGazExkZGZlLoLzRDZCRkbm5kYWEjIxMk8hCQkZGpklkISEjI9MkspCQkZFpEllIyMjINIksJGRkZJpEFhIyMjJNIgsJGRmZJpGFhIyMTJP43ugGeJ0qo+d3TfCNaYe3KdkB6hAI6nGjWyLzG+O3ISSqjGDJxmnKQlF5HEdFFgqnERzVOKtOussp9ShUkTh9QsGvHcrgnhDUHXSdbnnh4Tj3A4rgAShkISHTwty6QsJ0HEq248hLguoc6WfXajWnTwgACk1Xj92cVSehdjdUgMNQb4MqBmX76RA6Qn4by8jU49YSEtZiOLcGZ9F3dZ29HHxCxAdAqQeH2V1eqQelquFxXOXr7+Mw48ieA9mg0A1BEXIHRD0K+ljvnpOMzE3OrWG4NGfhOPQqjh2dceQl4awuEBqCKsaznLZPw319dJ6f+ij1KHTd6pUNkY7pKF6OY28/nPt/L7QWGZn/UG5uTaLKCKfewVHwNiDe8BJKlbAvVNXTHPzagQWhHbjwCfQ8pmubw4wi+A6cxm0emxWqSPdfVSTOihSc+wZD2AyUXWaBX3hLnZ2MzC3BTatJOHNW4dgWLQRE3ZDCWV0ghg+qIPDRCQMkSB1f4bwAuuGex/FtI33w8fPYpgjsLoYaSr37owoSH6XKPVTxCQHDYhw7OkPOMq+fu4zMzcTNJySsxTj3TcKZ+bynvQFEh/bR4XSowScQhTbYbZhU6sGagzJ0iMfhlOoglAEdUAZ0QKFqXW+DHnw9tQyFpgOow4T24RqeuGwcdW1xZM7AuXOMsI/IyPwHcHMJifMHcewehNP0o+iUrrd7fWotKLTBOH3biE7v39m9zVEtNAbEcEGhigR1MPhoxUepcW/TdcOJxuP4Tl0PcUwfPyEsqk0eVSs0XYVGY9kttIqSHd65DjIyNxE3j5A4nYQj9U7xv0t7cJih1X3i/zqB4aw6i0ITiVIdBNpwFIHd3QIBUATFiv+loYIWpyIApyJAbHeVC+yLgirpN4UqEmVAB/APQaGJRKFqXTe8qRvKaLqCNsrdPp8QHGn3Q/o8L18YGZkby00hJByHXsVxdr6nYbIORU0pipCxHlObDrsJ/NoK7cA3UHRel1BQasR3H52wLShUKDSBKDSBQqtw2Rta9QNLnhhiAM6AvnXDD1HOacv3bEfbh3CafvZsnE8IjsKPcKbNbNHrISNzM3HDhYTj0KtQ9rVkW1D49XJvVOpxlq9E0WqQe7sqEoXlOChUQjvQtEERPMAtFBxVKFoPrbMrBIohha+/+IDb3uDfWQibuv2UwT1xohHH9NFCPSGhjJiG03igQdsVmq4oNF1xGreJqVIZmd8gN1ZIpM/zEBAoVeCjQxEwyF1GFYOzYAWK2JfdvzmqoaZCaAcA/h1F51eHgc0AwX3Ax0/YLTSBbiHhoxU2C3WY20lKHYZT0xH8O7g1jgtngbqhibYPtOontIh6NhKFXy8hlOrKOStSZI1C5jfJDRMSzpxVOPLrjefrBISrsyuC7nGXrTqLs6pCuE0DqIJwVqS7O782DIUuFqfCH6pKQdcJhaq1sFv4+oshiFIDChVKdRCK4P7Swi+nwl+s4QDpeM4LJyQBoOz+Ks7cTz0NqLrhoA6X2gJ1gqIkGU4neeeCycjcIG6MkDh/0D3FSd16CpeA8PFDoWotFisFJgB1HfDM36H9ZGE7cDlI1VxwC4FW/YRQcFaLxVr+HYQNAkChBYVWDD3UwRAQB44qMT2qDhKLvFwCp/K0dHxF7Ms4z6dDtclt8Ay+A2VQ9zq/i0AxHatU1Z1DiHDtlmc9ZH5DXH8hUWUUsxj1/R8Ap+UEgJiCdE1VtrlTCAqlSrhP5y0XXo8IDYALZ6Sy6NoLAVBrE9+1EXWGTX9QBYgPiN8C4qG6UpTXtQefILe2ceGsEFSBfSHkdij+xq0tBN8htBA/f5TqIGm61Wk96j4R16yH7Ech8xvhugsJ59H/d+ltFSniH7+24CuMjop2jwjV3idQMh4qOkwRGoBPtSivbgNql1elVgwldO1BUW/GQ6lBoQkUhkm/cKg1ibJB3YUAUWjBkifKqVpD90Qo+FbSKpwBfVG0vb/umGIGROG8AJZGtAafEJxpsiFT5rfB9RUShRtxlq8EnxAxMxAytkERR8kasBYJAVFnmFS0e0QyRHJuDYQOx6mLg1qV1LFRalAExYpO7KgSQoM67UATLMWLkIydNReEwNB1EmVUAWArFNpF9FNgLcZhyhD1ajqibHc/gHsGxFYs1n3Ud/hS6qVzclZuk124ZX4TXD8hUWXEkf4HTzvEhVMoO8wRMwV1fhAKVSTO8m0onJWehsmoR1H6asFuBNNxFDEThV9DVak4via4LniMGALgF44iYpRnbIiQ28UHQB0ihIpLgNjrjuPfUcx8FG8WRk5NJMoOj4ptvv5iBsRyWggzF9U5KMOfQRk6Hmf5OvFbnQt3g8hYMjK3GNdPSGQlifgP9XBWnRROVJGTUHaYU69VKpyGjcKI6DJMqkMg/G7xpj+fJsqFDBbagu2c+K4Jhogx7pWaF0ebqqdRENQDWvV3b7PkCTtGxBixNLymQtTV7kFRv8vP4nwaTuNutyFT0wFlr5U4q8uk1ar1cZx486oul4zMzcL1ERLWYhz584RHZf2pxDpV3ZH1V7AbUQ74tp7rcyBO40GcpixpdoKAeAiqm648fxD0sShC+oO23bW3sb6WcT5N2CtCR7jrVmrAdAyHKV0sMqsuQNnxFRQ93sSZ9Y7QIC6Ob1G3elSORyFzK3Nd4kk4MhZJHUih6SCmO6tNYsjhEhTFy8GUjrL/e2A+ivNssvBhqDwOmkAI7ic6qr7OI9NWF3uupSJHuTQMa7Gwh7QeDJrWwr5RXSlC5VWeRaHS4PRth7L3u1CZiePgZLHfRcLPpWk4qwtwnlqE4rZ/t0w7ZWSuMwqz2ey8fLFroMqIY2dft1elKginQy1Wcir8UViOi0VbdZ0KVRCKbv8UHTRvubBBqIOFBhE6/NL1tHCb6wsNijeL4YetWAx5QofDmU9xnlsh7eKsLgAQU7U+gVBbAbUWKRivcuAvXg2F5zj0qvAtiZnotTpk/jPxviZRuN79f90iLIVKI7QEdRAEjUdRaxPTm/ZinA41zuOvoYx5AuKmC1W9PMVtn6hvR/AWLgFRZcRZvB2FUyxBV3Su0xrS5+EwpaNQBUnLyRXBd4ggNrZinNVlOKurUGCpO289GH4C/XTvt11GpoXxupBw5otpQGd1gdAWfAAfP0ouBBIeJIyBTt82YpqzqhSn8ZjwPyjbi7OqQrwZg3oIL0aboYmavEhIgghVb86C/JU47CYUKg2gQRHYF6cuTiw7r6kApRCACpUVZ3UwCkoAcOQloYyThYTMrYd3DZfWYpyW3eJ/hxln1UnSzzgZ93FnOr/qyxe/+EpLuQHw74Cyw6Mo2j8kYkXUlApfA2uxUPEjxni1uQ3QBLuF1PmDQhsAlL5a4Q3aYQqEDhNOWmiEsdPPH6WfL8l7OhD8tz5sONpBTO9W58gGTJlbEq8KCWfxdul/Q2U0szY8z+BPB7GlCGjrz4vfVvHQ/HJKz9tA5Qu+/mzaZ+C1ZUYIuxda160GLd58Y92cTcfBeFj4ZYQOE85Wrfq5p0Wpc9KqteEwFfDCR0G8tF4HQRomr41n1oa6dSol25uoREbm5sS7w43STeATwufpz/PST4GgVIDex71dp2JLkYNOf8ll4e/8WXE4l5TT56XNr02/RzhI2c7d2CjV2nYQkuCeaq0q89xuK8RZtov002YGrx4BthrQ111avYZPM33YUvIqKx4+Qre469t0GZlrxXtCosrIhlQfJm+cBTUO0F2iKl8lOJzMXlch/teLBVtv/3gWjV8qidNGXVMKvj1pWYx+dS2J43uLY10N9Zywjmbk88Qbm8mx1rBwlB/DQg/QNbKM5JSevPSdHwQ5QXvRuWp9yamwM+jDWHLvthCs1zVSiYzMzYnXhERWsZ3Jn8dApBLUPk0XVioadiy9hnlrjgBcdeees2gdSRszIUDNvO+P8cuRPL56/RHC2ugvv/NFWG12XkvaJI6nU4FSIQSbPZaY8N7knLdBqyYup68Y2eUVlstCQuaWwms2idNnSyBEKwTA1aLXMO/7Yzw063OMZkuzdzuakU/vpz8k6dcsoZkoFaBTkZJfQdyUpWzacWUGxK2ppwiflOQ+nq/SLdj0GnIuVDcUco3hq+RIZuEV1S0jc6PxniaRX3ZtAsKFTsWW7PNEP7uUXf98mF5doi5Z1Gqz807yNuZ9f0xoLxd3XLUPqH2Y+OZPxH+6k8GdQ7m9Z3tu79OB2OiwBsczmi387YONJG89AwHqS59Pc8/TV0lugbzgS+bWwmtC4myRqWWEBIjO7XAy9KUVLPz97UydOLRBkS/XpTL9kz3C/qH1bbpunYpMk53MvXkk7zwLNdsbHHfTjuNMfPsXcDglO8k1o1RwIr/88uVkZG4ivCYkzhRVtJyQAHGsADWz/72XI6eLeWvWA/hp1WxNPcVL7/1CTplV2Ap8mzmCUiokzQKHk9mfpbB+dxZvzRzFG59uZ21KvtAemnu8ZtaZfk7WJGRuLbwmJLJLWlhIQN0Uqobk3bnsOfUp3dsFs3ZPHgRphIC4luPqVGzJMTJw+leSraHFUSrIPFfZ8seVkfEiXhMS9hovrhvT+orhwvliaKVtuePWm4L1GpYa7x5fRqaF8ZqQyLF6uTMoFS2vqcjIyDTAa1OgMX7XJVSFjIyMl/GakFD7ym/5RtFcxrFMRuYmw2tColNooJg+lHHjcBIfHXijWyEjc0V4TUh0bCsLiQbUOOje7urXocjI3Ai8Zjjo0DZICAnXp8bh/uuitp4Q8akbnrhcni/+/BZwOIkIkddtyNxaeE1IxEa1BoeTkdFBRIcF0C2mDa2D/AkP1dNa74da5UN4myDs9hrUal+KS03Yq2spMJjILTJyMqeU0wUmtuSb4bxNCBG1j9sJ6lajxgHWGu5JkNeKy9xaeC0QrtVmB8BPq77m45gqrJzJLyXt5Dn2phey9kiRWyPxVbq1j5sRhxMq7STEteKD2b+jS6cI71QjB8KV8RJe0ySuVTjUP46fVk3b0CAG94tlRt3vWbkGTp8t4WB6Ab8cySMlvdTtZu0SHDeSGgdYqokJ92fBy3cxeniPy+8jI3MT4v2Q+tcJo9nCiaxC0k6eY1NKjhimmKvcAuN6DFFqHJLtZUzPcKY+2I9RQ7t5v15kTULGe/xmhMTFWG12cgvKOHSygJTj+SzZfRaMNilgjIeB9GpwGWIdTrDXgqWGkbdF8MCQWO4a1LnRpefeRBYSMt7iNyskGsNQauZwxjmOnCpi34lCsksqyCy2QFWt28mpMaHhmsqtcYgZmVZaEsJ0dIsKpndcOLf37kBch7AWG2JdDbKQkPEW/1G+02Ft9Ixqo5eGAFabnYpKG8VlZopKKyg3WSgzXWiwX+sgf4IDtUSGBREaEkhQoN8NFQgyMteT/yghcTEuo2hYGz29utzo1sjI3Jx4VUi44lLaqqoxVViwV9ei81PTOjhADgYr04CiEhNn8ksxV9owVtgIDtSiD9ASEqQjvE2Q/MzcILwmJKw2O6s2pfHeuqPkZBsZOTCSGeMHkFtk5KMfj5FZUc2SZwcz6b4B3mqCzGXYmnqKdVvTKTHbCNKpyDW4A+JcsNdgqBC+LmGBavzVvkSHBRAT0YohfaLp2639NQ+5ikpM/LI3k+92nmLjtrNQUQNROhLiWgGQYrBAlsi1ikYJbf0Z1zOc27tHMLx/pybjnbYURrOFRxK/xmitJthPRWSIP0H1AhzlGio5Z7KSWVFN6vwJHn4wS1bt4nRduEKLrVoqD+L6ukgpukBCW3eip8gQfyJCdPSOa0unqJAWudbXgtcNl1tTT/HgrNWsnv+Qx3TgnEXrSFp5jFVvPSj5EGxNPUWVzY5SKXwcAnRqKi12VGpf+nZp1+BNsictiwCdCBJTaakirHUgsdFhLPxsC/cO7kylparuOO4yLqpqHLTW+6HzU2Moq/AoM7ifZ/bvzbtOkFNQTnVNLUEBfh6Bcy9uw8U3NCO7kHKThQCdxqONLc3VGC63pp7iwPF89p0oZOOxYvc0cY2DKUOiGdang1T2YEYBSbvPQqlFCjKc9PshPDF24BW3NSvXwDtf7iT5l2yodTDl3jgm3NOr0Xtstdk5fdbAsg1pJP18WsrTgrGK3B9mXhftoqjEREl5hWiDK6VC3RKDcf0jmT7+NsJaBxIZFuxx71dsOCCu269ZboO4UiH26xvB7d0jaB3k71FXmekCJ3JKST5YAIWVoFBAGz+mJETx+Jg+DZ7N64HXhcSetCxGz1jJ6v8b5yEkikpMxI//kCn3dea9xPGAkNpL1+zj9Xd28/2SRxnUqwMVlTa+23KU2Yt3sep/7/dwSsrKNZD4wc9s3HyGJf8Yw+hh3bBVVXPv7OUsmDocfYCIWjVt0Wa6RuiZ9ZhIG2iutDHxnV9JXfAI4W2C2LTzBFP/upFx98cxd+pIqRMbzRZG/PFz3p15N4N6daDKXiPKLt2NefVMqQ3T5q8n5UgJm959pIGQMJSaWfjFNpKSj5D093u5/44eXnmwr3V2Y86idSRtzRYCoNSCecsrjZZbvHw7r36WKuJ/mqoYN7g9n/99UrPrWbx8O68uTYFaB+OGdeCtl8bQNjSoWftm5RroN3ulmGWqsJO5fGqz920p7nnxE1IKKkVnt9VQvPrFy77lM7ILGfinFSIsYo2DKQlR0jPfFEcz8oVgWpMOwRqw1jCyVxhvzRzlNc/dxrixbonVDiJD3Eung/U6hvSJBq2S9uFBklFx6sShTL2vCxP/sVFy9waIjQ7j+Qf6gFrJpPsGEKzXcfhkPj+//Tijh/dgcL9YBveLpWNrHR3bBkrfRw/vwaa/3oevrw/Beh0P3tULgCfu7enxlv/7R5uZPDSWOwd2xk+rJlivY9J9A1j4WH+PNvxuYEcI0TK4X2yDByasjZ5xd3YHJV4TEC3BPQlxnovvLsGMySNY+PvbRSrDVlrWpuSzYsOBy+5ntdl5aNbnvLrsAPgoWDhjKJ//fdIVdfLY6DBylz5HTKC4xqaK5udiaSnu7t1emhIfGd+6WcOALp0iSIjWS8523WLaNKuuXl2imD9rLGlfPsvIuBDw8xVxWJ//gi/XpV7TeVwJ101IqNSe5o9Fy7YT3z2E6ZMbhsdvjP5dI6HYRkWlrclyo4f3aFaGrsH9Yhuo/a5hjosSs429Jxsm02kspP+tjkrt2ywhAeL848N1orMEqFnyw+Emy1ttdsbOXsaW7PNQ47hkWoTmEKzXsXDaHVBZTbmpBYREyQ5In4dz3yScu8fi3DcJTidBVRNRzeuGGkEBVxgPtW7IofK9Mu/f2Ogwvlv0NFOGRIt71EbH9H9tY+FnW66s/qvk+ggJfxWLv0ll4WdbmL3gO/Rj3yFpazbr5z/W7Dfryl9PMHJk+6tK0Xe13D84ji17zjFz3poryiD2n8CEQZ2Ep6lSQcqREg8N72KmvfEtKblmAMYlRF2zkB01tBsEqcktvMr0BFVGOJ2E4yc9jrT7ceTPg2oTzsptOE0/4sieg2P3iKYFxRUSEqC95vgq7yWOFxqFvRZaaXl92YErzkZ3NVwfPwlbDRPu6MKDd/Wiyl7DMw+Ws2DZLuIfTmLK/fENx2e+CvKKhVXbUFbBVxsPc3vXCF6ecsd1aa6LSfcNIN9g5vWlKSTvPMvciX2Z8djQxlVMh5MVGw5QU+v5Nvb1UZKdVw66W3B5exN0ah/ifug1PpgqrI1el007jrtzmNhreeulMS1S/5vPDGxwrZtF4UYc6X+AWjHroOw0H9pPBk0wCnMWjr39wCcEqnNwnHgTZd83W6S9LcVH//0Q8S8kiy+ttEx88ydy+3T06jD2+mgStU5CgnTSuL5Xlyg+//skptwfT/KGUyxZtavBLsUlZixWOzPf+5lcQyWJ00bdkGmg2c+MJO3LZxnTM5zXP9xL+FMfU1RiarRs99hwesdHeHy6x4bTJkQH3kwxcCNxOMFHQVCgX4NNVpudie/8KgREjYPpd8W2mKFxxuQRVzazUmXEmTYTx9FHobYchW4IyuGnIG66O2u9PlYICBB/DYtbpK0tSdvQIOY+1EvYhACUCpKWN+w/LckNNVz+cdJg8FWw40i+54YaJ7f1bE+vLlGseO1htuw916gguV7ERoexcv7jbEp6FCzVPDDn64aFlAp6dYlq9NMzri3Yr+KtdxOTnVcuTUeOS4hqVIB//+tRqLRLMwHj7ux+A1oKWItx7B6Bs6TuDRz4EIphG8Ev3LNc4UZJw6C2HEXQ765vO5vJ8+MHiesKoPVl3s8ZXh0O31AhERR4+TdsbHQY0x/tyex3dzY57m1pGqtrcL9Ylrw4gswzpktqE/8JWG125v2cIYREqZW/PDui0XKrt2W4M6tZam7IHD/mLBw7OkN1DgCKoN+hHPxFw3JVRjEMcWkSgCL62evVyisiWK9jTEKU29BsruJQxjmv1Xd9hISPolFL9LbU03ChhqfG9G5y98Tn7wa9mr++96O3WgiAw+F+23//61G2pp5qUCY6IhhqnGg115BW8BbnlUXrRawOey3fvz2+0Tl7o9nCxsxSyXkooXfo9W9ofRsDoNANQTFoRcNyVUacqY95ahGhUyCiZewn3mDUbR3cQkLtw56DOV6ry+tCYvfhXFAoWPDNfrJyDYBwMFqx4QBTF/zCwsQ7PZyszJU2sDmwWN1v8mC9joXPJLBk+TGOZngOTY5lGcDukI7dGGfKLBSWX1odKzAYwQFZ+WXSb7f1bM+Ds1aTke05Bbro633MfT7Bw1BUUCIC3FxK0zFX2sABeYW3Tkbxi8/FUGpm047j3PPiJyRvPcOUOzuS++UL3Dmwc6P75xWWg6VaCAmHkz4xra9Hs91UGXEceNjjJ0XvDxqWM2eJoYhltxAmdQJC0e+969TQq0MMYWvFFy9nq/fq7MbCz7bgp/Eh6ZW7sNjsfLx6HyAiacdGtab4x5c9xrJLVu3CfMFO0t/v5ac9pziSWSgZp6ZOHEppuYX1W09QYDAxengPvlyXir2qhrkvDWHlj4e5M6GTh0qbkV3I+u0nmTxU/LZ4+XYev/82jw6+Jy2LrSnZzH15CCZzFUtW7WLqxKHERoexev5DvL9iDzqtig5tgzhbZGLWY4M86lix4QBt9DrmThnIO8nbGD+qp8ebddOO4xxML2Duy0NYv/VEo27fNx1tdIRPXCx5CHK2AtRKCFCBvwr0GnrHhVNcarqkVb2otMIjhKDvdQ4n6Dg4UwwxXB0/fqkwTNYnZxmOzBkePyl7rbypNQgXIUE6d7R5X6VXs9V7VUjMfmbkFZW/3Px54rRRHt8vZ93u0inisu6rLi/Mxhg1tNtlw89dboHa6OE9br34lrYa5k7ow4Ae7gVU54qM7D2WR3JKPliqmf15Kvx77yUD/HoMLx1OgnUtmNj5MjhzVkHFd24BoRvi6a5esgNnxhtCewDwCUHZYY40FXor4HuFDlnXVFdLHCQju5Ccc+XkFglpFhMZQnREMNGRzXNblbnJqLQ3KuCfGDuQt2x2Pv12r1i/odeQUlDJwOlf8f0/Hrzk0AOlAqOlaU/ZFqPKiDPzeU8DZK+FYM4Cw084zs532x4CH0IZ88QtoTk0iZeTYF2TkNi04zh/XrKDKXd14d7BnenTNQpThYVDJwuY8PbPcK4S897ElmqrzE2An1bNjMkjGN6/E0NfWgF6DQSoefC19WR+9pzkBxEeqncb1pSKJm1CLUpWkud3nxAc+wa7vwc+hCLiQRQRo24ZraExDGUV7oRWDqdXM8NdtZB4+m8rSD9nZPv7T3uMS9uGBtGlUwSjh3UjevJHGM2WRsethlIzDqcTpUJxXV2tW4r6hr3/RG2pV5coFv7+dmZ/liIFF160bDvzZ40FIKJ1gMeYee2xYu83qsooXKzraxGarihC7oCI0aDrdEsLhvqYK21um4/DSZ9Y7wVeviohMXvBd6xNyaf4u5mX7CDBeh1LXhzRwLi1ZNUujpwuZlifDgQHasnKL+PDH9OZclcXyeXZarPzTvI29p4s5EyZhd/1a8fvhnVtoM4uWbWL2cv2Q7GF6ZN6MuvJER4efZt2HOcvn+4k85SRuc8nMOOxoWxPPcWXPx1j7ZpMVn04/pL2AtdSdjQ+JE7sQ+K0UexJyyJpzX7WbjkDEQEkPT2IorJKkn/NoG+HVh7LzL9cl8qmlGwOnT3PHd3CeGBYl0vW9eicr0h+/ZFbTtg8OXagCCp0oRrUPiT9kCEJiejI1tCqnh3CaMNQavbuC6Fwvef32nLhNPUb5FiWwR2jwlojVk97iSs2OR/NyGfJdyd485mBl32oJ903QDJoWW127nnxE3RaNe8ljmfSfQMYPbwHMyaPYN/Hz/Fj6hmGz/gUq82On1ZN4rRRPDAklpxjZcyfNbbR8e7UiUN587F+oFIyf9bYBi6/o4f34NM59zPuzhhmPzMSP62a0cN78JdnRxAzIJSJ7156Fd2na1JI6B3KlLs7SQbTwf1i+egvD0NrPxLv6cITYwcy+5mRHPn8D5gqq+g39QvJ8+2JsQP585NDyTlSxstPDLukgDCUmtm47azwTrzF8NOquaNbmBhW1D2wLiczP62acV1D3UMOnYotKQ39TloSZ/4ytxZRWw6BD3m1vhvJj6ln3AF4Wmnp26291+q6YiGxbEMaqJTcPegSRqpL8Mqi9USG+Dc6I+GnVbNu4fsvzjkAABueSURBVJNkFluEo04d0W0vrxqqfH2I6Xjp9QA6PzXdokI8fsstNLJg6nA4b2PzrhMN9snKNdCpfQj+al+PeBdNMWP8ACixUVx6kSemEvz9Lr2k+JvNh6B9IAu+2d+sem42eseFX9JwNn38bVAXAg+1j/DA9BZVRvdsRR3K0CHeq+8GUlRiEhnrfJVgr+XN8b29qoVesZD45WgB6FSEt2n+Qp2sXAPJK06Ih+YS+GnVJD7Yk+QNpyTHKGPFtVvE/f00DSzr5SYL/bq1Z8rdnXj/m4bBO1b+eJgH7+rlEYfwchzLMkCIRqjZzcRqs5OVf55d/xhHZno5e9Kymr3vzYKu/sNZ60CpcOctGdwvloQuIUKb8FWy8VBhA2e4ayEr1+C2DVmyG2x3+jYvuMutxqdrUsSiuTqeffh2r9Z3xUIi84zpirNe7T18FrRKOkY1fdMG948Bp5PTZ0uutFmXpDH36TLTBQIDtPxx0mC2/HTWw6vSUGomSK9pWjIrFRSUV5CVa+BoRj4LP9vCj6lnyF0z44ok+vbUU4y9s7sI6NougKQ1t542UVTmDp5LgLqBzWHRS/cKbaIuQM2z839omXpLTPQbt4TcgjovWVtDj1uFf9vmHawF40Z4m6ISE/PWHxeObudtrHrF+6ujr1hIJHRvA/ZabFXVzd6nqKwSmiFXIloHgEIh+Vt4C5O5Cj+tWoQVu7Md76/YI21bunrf5SWzUkGx0YbFaqfAYMJeVUOKwcILb6y9ooVf63dmSLaWJc8PYe3m7Jtj4ZiPEkOpuVlFpbGxrYbEBxraXXp1iWLhtMHSatDMEivzPtp8zU1849+/QISuaWe5moaJlhpw7DUc26K9Liiq7DVSWsnT1+BC/eRrq8VxzFXMfXLAdXHUu2IhMSAuFOy1HD7ZfLVR768GHwUl5RWXL1zjaJYtoj45ZdZLbmtMmJXWW1b758cGkbzhFEazBaPZglrje3nJXOOgX6dQenWJYvTwHiROG0Xm4qfYeLKEe2cvb1abi0pMJB8s4Mt1qXy5LlUsvVYp+fKHg83a36v4KCguu7yQ2JOWRUpOnVBTKi4ZinDqxKEkju8N522g9mHemiPXFHpt047jJG84xZRh7mjeaBtOATpyvrz0QcxZOHeOwVHwtnDFvtKpUaUCm2vtRDOQhq5KBQdOX52mPHPeGnG9L1STOL73FXs0Xy1XLCSee0jYFRavuXzwU6iLOD2gE9Q4+WlP09btnHMiRkGfrs3Pp6DTqqHs0raLkvIK4i4yXNZn9PAeEKzhqx/2s2pTGk/c3/+SZZuibWgQbz7Wj5zM880ad3+6JoXMxU8xflQfxo8SU6xT7uvM698eua5L4l0Ul5jd8+5aXz77vun7m5FdyOj/WScZz3a9NaHJ6EiJ00aR9Kc7hEah9eX15Qd5+m8rrjgOwooNB5j4+o+g8eHxMX3cG3SdPAv6hAjX7PR5nlqCOQvHoVdx7O2H07IbZb8frsjj8kR+uZRs+mRh87Qtq80u5TDBV0nK6fONGswvRUZ2Ibc995FIQQCsmvu7BksUvMkVC4kunSJIfKwfW/acu2yU5D1pWSxds48unSIYc0eHy3aApesPM318d2kqMzjw0v7+RSUmrDY7naJCwO64ZMdcv/UEt/fu4PHbxYuN5k7ow6tfp3E6v/yaIiepfH3AV0HoZWZErDY7pWYLbUODpFSDAC+MT4C8SrY3skTdmxhKzSKYrSvvhtqHJdvPMO+jzR7DH6vNztGMfOYsWsfAF74UId47tSIt6YlmJcp5YuxAUpMeJyFKXJ+1BwuIfmoJCz/bctnhTVGJiZnz1jD1X1vBz5f46EDPNTeaYJRRiW6XaxDelvnzcOzsK7SGLb3F0nHDYlDFoLw9DUKHN/s67UnLYu2RImnYkFNmbVbU6mXrUsk5b3Pb8gLUTHjrJ1ZsOHDJ/mA0W9iaeoqn/7aCgVM+JzO3gqmjO3M6+fnrvhboqpypXFJs6n9vxHzB1ujCrKxcA6NnriLz2+kAfPyXcdzz8heMnb2MdQufbKDSL16+nfJKGytnPS79VmoUb5nGvDZf+r8fSH79EWFBHxzBs/N/4Od3nmqwwjMtu6SB1K25KCr0Uw8M4PUFO5m91DOGZkpBJZEhjYwflQrSsj1VRqPZwuxl+5k+oYenoGkkINWazYd55J6eDX7v1SWKmJ6t+cunO6/Lg5CVa6Dfi19B3gVopQIfT+E5b9lB5iWlQHW9k9Aoie/bhsSJfXjgzm5XnEWrS6cIfv7gOfakZfHVxsMkbz3D60tTeP3DvcR3D+HuXpHERYUQ3TYYY4WN7LxyfjmSR8qBYlApIVjDlCHRIqrZxXRPRGHcjbNym2cYutpyj8VcitgFzc5P4or0nZJeCqZqCPGczp7+xs9Mn/8LMZ2C+fYf4yVnOkOpmXv+6ytyMs8Le5y/Cqx1Q446d+qp/9zM1P/9iZj4VoQFuvtDSn4FnDZDKxVjhkaz8KVhjL2z53XPMeLimpLzHM3IZ8GyXaSfMzJhUCcRHBV3tqfEe7o06KCLl2/nk80neG5UN7rHRVBls7N+Zwa392wv+VBYbXbWbD7Myl9PcKbMQsfWOkYnxEihyDfvP0vHtoGSd5/RbOGlBetYe7KE6UM6ENYqgJzC8+i0Kl6bPloSSK6l46+vO8abj/TxSBW3NfWUZEQ8mpHP+q0nmPdzBvGBKmY93J8nxg4kK9fAx6v38WPaOXKsNUxNaE/XmDaUlls4kV/OE/f2lDr3ph3HhWfnyRKm9I/k8TF96NutPcvWpfLeuqOM6hXBvbfHSeWLSkxsSz3Nkh8Ok2KwMH1IB4+2X46rSc7jyo6lVvng6+tDoE4rucpXWGzU1HiOuX19fRpkqbpWXG04klnIkdNFFJZbOHT2PCDSC0aG+NMtKoRO7UPo2zWyeYsGc5bhzF+Gs7oAAIUqUrhmhw67Is3BhWv2q/41AlAqFDicTinPbVyHMKltjV1bQCpfbrJQVeMQwzygptaBb52Qjo4IbjQj2I2iRTJ4WW12CgxGKVBMaEjgZaVeUYmJC9Yq/P00jZa9WHu4WC1r7OJZbXZMFcKIGRTo16CM6xgu1++mjlN/m8sL1PX3UuUuPsbFZS8+xsX/N1Znc3GmzUTRahDEPNnsfWRkmoPX0/zJyMjc2tzYNH8yMjI3PbKQkJGRaRJZSMjIyDSJLCRkZGSaRBYSMjIyTSILCRkZmSaRhYSMjEyTyEJCRkamSWQhISMj0ySykJCRkWkSWUjIyMg0iSwkZGRkmkQWEr8hXCH4ZGRakqsWEoZSMws/28Kjc75i5rw1t2Q4+N8SRrOF6PveZdWmNEBkBdu04/gNbpVMczCaLdz23Ectmm6gJbkqIWE0W4ibspTkXzO4s28UxUabyE0o44HRbGHOonXXJQJ2cakJapzc3rsDVpudjdcj9+ZvlIzsQuYsWnfdYo3aqqrJPHXzhvX3SUxMfO1Kd1r90yF+WHeSIyv/wPDb4pg4qhdxHdzRiotKTBzNPIe9uoaQIH/pd6vNzsmsQrLzSgj012KrqubsuVLatBIxD41mi/TdaLZwrvg8IUH+7EnLon2EiHqVlWsgI7sIla8PAf6Nx8B0lTGaLWjUvlLujYvrd/3uKl+/va7f6pczmi2kpediNFvQB2hR+fpgtdnZfzTH4zdXXR+v2sP/fZnGY/d29Sh/MqsQQ5mZ8CbyYh7NyCc7r4Q2rQKkYxaVmKi0VBHgr+VoRr7HMQ4cy2XVnmxe+/0IfH2UvHBfL/p2a4/VZic710CbVoEN9rm4rvrnWp/61+3ie9rYvc7KNWC310j3x1BqJjuvRKrXdW01Kl/8dSIcXEZ2IW1aBZKRXYij1knFBRuVlip8fJTsP5rjcfyiEhMWqx2lUsH+oznSs+BqS/1rdqlnJiO7EH8/DWXnKzmaeU46d6PZwn9/sJmdJw2MHhCNv5+m0WNdfB0uvraGUjNFpSZCgvw5mpGP0+nkXPF56Vl3tcFR60SjUTH9kf5S6LvLPZP1z8P1/OUXnW9w3i3FVcW49PVRgkbJqk1pDeJbLlm1i9mLd0GwFkqtrPrnA4we3oM9aVmM/t8fRKKWqlp2/fsJ9h45y+x5Wyne/Wf8tGrmLf2FpJ05mFfPJGn5Llbvy6ZdkB9b8s2YV/2R2Qu+Y8mmUyJe4IVqdn3wmEeMxaISE0++tpqU0+dFhqNzlST95R6eGDuQramnePB/fwB7LVhq2PXvJwB4JPFrEb9Q7UPi+N4kThvF039bwdqUfCkwbOYnz2KqsDBw1kpRkbmKtORnAOg3c7lIPFNpZ9eHj0vtWbYuldeXHYBwf4b+/ktSk5+m3GRh9GvrpfLxHYPYsfhZjwhURSUmHpjzNZnn6pLe+CrJ/Ow52oYG8ca/f2HPqRJxTY4a4EI137/7CHcO7MzB9AJopRWJmlftYnbiz5hPz+X7X48y9e0tTLm7E8k7z4Kpirm/H8TsZ0Zitdl5LPFrtmSWiSCtWl9ylz7nERFs047jTHyrXp6M8zZ2LX2SXl2imPfRZuZ9nSbudYlFOm6/2SuZ0j+S9xLHAxA3/XMSwnT8/MFznvew3nUceO/HJP55CPMW7Cb1pxf420dbqLLXcM5kJTO3QnpmenWJYto/vwMQ286YoI2OhY/2Y/bnqWCsYsyQ9qycL2Klzlm0jqQfMiBQDUYbqUufIrxNEAPv/Zgpz/cieW8emKuIaa/nyOd/4G8fbGTtwQJQ+zBwyufk/uBOii0dy19FQlQgP3/wHFm5Bh7+6xoR6NZey5i+Eayc/zhLV+9j+a4sukboOVloZs7EAUyftYHcg38mWK9jxYYDTH1iLWmHZ/LxF/tI2n0W86o/YjRbmDL3G7YcKgK1D1Pu7Mh7ieOZOW+NiJZd9+ynffI0/n4a4l9IFhnSjFVsevcRz+DALcRVDTcm3TeAMSM6MHvhdu558RNJnd6aeorZ7+4kLfkZzN++RELvUH7dLxLOjH7+a6aP6Ejx+pcw75hDry5R7DiST8LgCOkmnMw9z7juQpoWlFeQmVvBiD7tyV36HF+uS2VJSp7Y/7s/gZ8ve4+cldpktdmJfyGZkAAtxd/NJG3RJAB6x0eQkV3Igy99w/S7Yin+bqZU/z0vf4Ghwk7mymmYN80mcdoo5n20mfRzRsybZlO8agYYqziZY+CT7/aDUoH5uz9h3vIKsdFhrPzxMFyoxrzuZcxbXvEQWFMnDiWhSwjTh8Vg3jGH8DZBjP6v1UwdFoN53cukJT9D5qFS1mw+7HFt4//wOcF+KlH/dzNBp2LBZ1sBOJFvJPNcJf/4w13krpkBejXpp0X8xb0nC0WCXuDI6WLiR4jsVdl55VBVy7A+HTD/MIv4+FZsP5wHwLQ3vkWj9sX8wyxOf/ocpJ/nRJY7m9nRjHwm/mENbz7eH/O6l/n+f+4Hi4jluGLDAeZ9up9Nb0/A/O1LzP39IF5/ZzdWm50p/SMpNorh56YdxyG/go/mPMCSVbtYkpKH+ef/J+4hsP9Yngh7GOPPL0fySPt1OtGRrTlZaGZLrokVrz1M2idPg6+C9CwxhDpnsrIl38yGtybz/VsPQ6mFHUfyMa97mcQn+7PxpAhSvGTVLpK2i8xq5m9fggA1+4/ni6FZez9MlmrM3/2JhTOGklNQidFs4a1ZD4ClmiVTh2LeMUcSmEazhaQ16Sz5r5GYv/sTP3/wHAAP/3UNU+7qgnndy6z+n/vYuD5LioaeU1DJoG4RbH//aW7rEQV6X8qMQvhPXbqbqf99G7HRYRw4XcLUBJHw95HEr9mSbxZ9aNNs3kscz+Ll29l2wuC+bhof9h/LE+n+LHXP3445XhEQcA2Gy5XzH2fVggdJyRFvPoDF36QS0zGItb8e554XPyElvZRxd3Zn0bLtEBvE/FljPd6aa1Pyubu3uDhWm50tmWUM7y062rYTBkb2CmP2MyMJ1uuYv+oACWE63knexm3PfQQOJ3fVS1q8bF0qGG18/Jdx+GnV7D+WB34+xHUI4+PVKRAV6FH/1tRTZKaX8+VfHpBibFptduatP06n0EDmfbSZ8Kc+hrb+9O3Sjv5dIqHEwsx5a6QZhE7tQ+BCtcdvLoxmCymnz4v9gB+2CSPinGdFQhWXammqdCcW2pOWBWfMIjUeIt7lmE4h5JWKTFQpB4qZO7m/WxhZaoiNErlHt+wv5PbuIptV8t487u4l6t17spCRt0Uw6b4BANhrnHSNboXRbGHtnjzCg7XMWbSOuKmfET8ozCM79YJlu0i4sx0zJo8A4MDxfGgfgJ9WzYJv9jNuVCfpwRzQIwqUYKqw0jsunOwSkYjpz0t2MP3RnsRGhzF78S5GRumZ99Fmej/9Iah9GD2sG0cyC6GqlmWvTSA2OoyKShs5medZ8vwQtwpurSU6Ihij2UJmejmrXhpJWBs9Gl8l1DiZO9WdqCa+tVDFZ69MY2RMMEnLd4n6HE7uvj2eQycLwFrLu38e675hPgqC9ToKDEYwVdO3a6TH/QzW64jvHMzUf22VDMJbU0+Rk2fGcL6S2Qu+Y8Jf1zHlyR74adVsO1HEmAGR0vMbHdkaHGAoqxD7l1uZ86zQ5lJyzST0iCIju5CUPYV8/8poj6HHq18dpGNrnfu6AXcMjOO2nlFgtl9V/pIr4ZqmQEcP78GbTw4g81ylMJal5NM1Qo+fxoep9/chc+U0BveL5ZejBdJbzoXRbIESG/27i5uRW1AGhRZ6xok3YM6RMh4f1UMqm3PGRGSIP0F6DW88O4zc5dM8LuTm/WdJ6N5Gkvw7D58lvqPIa7H5aGGD+tNPF0KAysOWUmAwgrGK9m1EPatfvpviL14gWK9j0n0DWD3/IZJ35/JIohCKk+4bwPfvPkLy3jzuefkLj+MXl5qgxEb32HAADp4sIL5jkJQr06V9ta43rs0tFMYrV5usNjsb0w306xQqytsdDOkTDUBeYTlcqCGmXYjYdqGGfl3bCWNbmVUSTltyTYxOiJHqyMkUgiuvUGgYOq2KuKgQvv/v37H/k2kegXjXniwRGdvq+DH1DON6t8Vqs5NZYpUEOtQJEESSopjIEDJLrGzacZyczPMkPn+39BBHhwUQpNewYOpwcldNJ1ivY++xPBJ6h0rCOiuvBOwObuspBFZ2XhmoRC7ZvMJysDukBE7HThdBmE56FtKySxjcOVRch8JKz/qWT6NtaBAHMwqIiW8lPStHThcT3y4AQMpD21ji55/feYrpY+KZ+Ke1bE09xbkiIwSoCdZp6d81kk1vT+C9xPHi+qSXM+GOLtK+flo1hGvJzi/nL5/uZO6UgYS10Ytn7twFuseGC+GlVjKolztPjNFsgfO2Rs9j1NBubFr8KGsPFRL9/CcN2ttSXLGQKCoxsSdNqFSGUjObUnKIbyfeLvEdxU2eMXmE9OYC6BQayNqTJVJCHaPZItLvqZUYK2xYbXZeXPgj+PvSLVYMD1AiSXON2heCNXSLCmHG5BGMHt6j0fR9rixJm3edIHnDKbq3E6nbukboWZtuwFBqxmqzY7XZRee01bDzgJi6NZotIuy500nXmDbMmDyCYQNiMVVYpTaPGtqNqSM6klJQKf1258DOJN7X3W1DqCPnXDn4+6LzE50uNqoVmbkVUsb0V97dCO0DePCuXtI+IUHiod13VAyjFn+9C85d4NnxCVJaxW6xQltwqd5dOkVwNLNA2nb6rAEstfTtGimER0El3ePEPhnZhWB30D02XLSr2kH/LpFMnTiUQb06eCTI8dOqiQ9UceB0CUazhSWrdpGSXsrt3cXwMKaVlh1HRJuycg28npxK4rQEAHrFR0KlnT8v2cGbfxpKsF4n7qG1lsiQQGZMHsGIgZ2le7jnlKcwOna6CNRKqeMfOVUEIVrahgYJrQMkgXLkdDFj4kSHttrsbMwup3dcuOiUCoVUX/1n5se0c4zq5c4hmrz1DBMGiQxgx7IMoGnYLQylZoL1Ol6bPhrUSs4VGQkLCQBjFQ/c2Y0nxg6kW2wEVptdvPDqrnN9xiVEMX/VATJLrFKKvtNnS8Dfl/YRIdL9//7Xo9IzqVH7Qq3T47rZ61IGGs0WBveLFTlYT3lvBu2KhcS6rccY/eRXhE/4gLiHk9iSY+TLvz4IwLznR7Bxdx76se+gn/i+lBfzb8+NgPM24icvIXzCB6zalCZucoCKqQt+IfyJj+gT0xoqagjW69h/PB8cbmnup1WT9MJQ5n22H/3E99GPfUckjK3H8w/0ISfbiP7+RXyx8QhjhrQnVC/UzlmPDQJTFXGPfUz4hA9Ys/kwD97Vi/j4Vkx49Xv0D/2LRxK/JqyNnsSnBjD77e3oJ75P+EPv8eUPB9l39CzRD71P76c/ZMn3J1kydSiHTuQRff979H76Q+YtO0jSH0d4tEcfoBU5QyctxWi28Pj9t0ErLf2mfoF+4vusPVRI6qJHPYZfo4Z2I2FwBA++8i36ie/z+rIDrPrXOPH2Sy+A9gHS2y/leL6UKGb/sXwIFUbL9KxiUCvFuD7HAFYH7cNFhzp0sgCqHLSPCCE2OowpD3Vh6j83i3P93Tts3pPhcQ5vPDuMlCMlRI9fzJHTxaBT0TladOYFU4ezdnM2+onv02/KZ4wb1kHKsdI2NAjOV5Nz3iYlX/bTqnnzT0OZ96m4h+ETPmDRsu3irXuoVNJ8AHYcyScmvpX0fd+JQinr195jecT0dL/lk3eeZVA30eFNFVZIK5O00YUvDWPeFwfQT3hPemasNjs5eWa6xogM90azBbIqpZwxen9xPwa98InHFOjjc78R7Z6UREx8K+6/owfDBsSS0DuUob//kt5Pf0j0vf8it6BMXGdzjYeWCtAnNoycY2Usme7O/XEwvQB8xVBn1NBujBzcTtyTh99lxB8/x0+rZuF/jRDnUXfdFn6xjaMZ+UTf9654/r5O4805V55PpLlcVUj9ohITZ/JLCQlqmNXZaLZwIquwwTarzc6hE3kE6DTSmNpV1jUOLjAYiY0Ow1BqpsJi8xhO1K83rHVgg20g3mgWq51eXaIkdd71xjGaLeQVlqNW+Xi0y+XA0j4iROqAWbkGDGUVHvVkZBdSbrLQLTaiQbn6v12qPRfX11Tmq6MZ+VRaqujbrb0kRC4+n/rfL/7/grWK2OgwjGYLZcZK6Rwu/l7/HDpGtWk0/4kr/8fW1FM8OGs1md9Ol8oZSs1k5ZU0ej+ycg0E6rTS8MrFxffQ9eatn3Tn4nPNyjVI+Vnq/++6L+FtggjW6y55rIvrKzAYaR0ccMl9jmbko/NTe5yTK9lOY/fOdb9cz8Glnt/Grv/F59rY8Ro7j/r37lLPX0sh592QaRSrzc7ir3cxpE80uYVGpi74hSn3xknTmjL/OVyVn4TMb58qew37ThTy+rpjxAepmTtl4HVLdS9zcyFrEjIyMk0irwKVkZFpEllIyMjINIksJGRkZJrk/wO42dDwKu6F5wAAAABJRU5ErkJggg==;" vertex="1" parent="1">
          <mxGeometry x="131.5" y="60" width="145" height="66.21" as="geometry" />
        </mxCell>
        <mxCell id="wXUvmhFlW6K3RGWHzzFr-11" value="&lt;p class=&quot;MsoNormal&quot; style=&quot;margin-left: 36.0pt&quot;&gt;&lt;span style=&quot;font-size: 10.5pt ; font-family: &amp;#34;segoe ui&amp;#34; , sans-serif&quot;&gt;“The&amp;nbsp;reason for Cognito is that we need an OIDC service that can dynamically read&lt;br&gt;authorization data and put it into the JWT in a smart way. Keycloak can do it,&lt;br&gt;but you have to install custom extensions which means Java programming and&lt;br&gt;restarting Keycloak each time. The Pathfinder SSO instance is not appropriate&lt;br&gt;(and they would never go for that level of customization).&amp;nbsp;&lt;/span&gt;&lt;span style=&quot;font-family: &amp;#34;segoe ui&amp;#34; , sans-serif ; font-size: 10.5pt&quot;&gt;&amp;nbsp;&lt;/span&gt;&lt;/p&gt;" style="text;html=1;align=left;verticalAlign=middle;resizable=0;points=[];autosize=1;strokeColor=none;fillColor=none;" vertex="1" parent="1">
          <mxGeometry x="419" y="320" width="570" height="100" as="geometry" />
        </mxCell>
      </root>
    </mxGraphModel>
  </diagram>
</mxfile>
